<svg xmlns="http://www.w3.org/2000/svg" xmlns:xlink="http://www.w3.org/1999/xlink" width="20px" height="20px" fill="#fff" viewBox="0 0 15 15" version="1.1"><g id="surface1"><path style=" stroke:none;fill-rule:nonzero;fill:#fff;fill-opacity:1;" d="M 3.4375 13.75 C 3.1875 13.75 2.96875 13.65625 2.78125 13.46875 C 2.59375 13.28125 2.5 13.0625 2.5 12.8125 L 2.5 4.6875 C 2.5 4.4375 2.59375 4.21875 2.78125 4.03125 C 2.96875 3.84375 3.1875 3.75 3.4375 3.75 L 5.15625 3.75 L 5.15625 3.59375 C 5.15625 2.9375 5.382812 2.382812 5.835938 1.929688 C 6.289062 1.476562 6.84375 1.25 7.5 1.25 C 8.15625 1.25 8.710938 1.476562 9.164062 1.929688 C 9.617188 2.382812 9.84375 2.9375 9.84375 3.59375 L 9.84375 3.75 L 11.5625 3.75 C 11.8125 3.75 12.03125 3.84375 12.21875 4.03125 C 12.40625 4.21875 12.5 4.4375 12.5 4.6875 L 12.5 12.8125 C 12.5 13.0625 12.40625 13.28125 12.21875 13.46875 C 12.03125 13.65625 11.8125 13.75 11.5625 13.75 Z M 3.4375 12.8125 L 11.5625 12.8125 L 11.5625 4.6875 L 9.84375 4.6875 L 9.84375 6.09375 C 9.84375 6.230469 9.800781 6.339844 9.710938 6.429688 C 9.621094 6.519531 9.511719 6.5625 9.375 6.5625 C 9.238281 6.5625 9.128906 6.519531 9.039062 6.429688 C 8.949219 6.339844 8.90625 6.230469 8.90625 6.09375 L 8.90625 4.6875 L 6.09375 4.6875 L 6.09375 6.09375 C 6.09375 6.230469 6.050781 6.339844 5.960938 6.429688 C 5.871094 6.519531 5.761719 6.5625 5.625 6.5625 C 5.488281 6.5625 5.378906 6.519531 5.289062 6.429688 C 5.199219 6.339844 5.15625 6.230469 5.15625 6.09375 L 5.15625 4.6875 L 3.4375 4.6875 Z M 6.09375 3.75 L 8.90625 3.75 L 8.90625 3.59375 C 8.90625 3.199219 8.769531 2.863281 8.5 2.59375 C 8.230469 2.324219 7.894531 2.1875 7.5 2.1875 C 7.105469 2.1875 6.769531 2.324219 6.5 2.59375 C 6.230469 2.863281 6.09375 3.199219 6.09375 3.59375 Z M 3.4375 12.8125 L 3.4375 4.6875 Z M 3.4375 12.8125 "></path></g></svg>